<?xml version="1.0" encoding="UTF-8"?>
<!--Generator: Apple Native CoreSVG 341-->
<!DOCTYPE svg
PUBLIC "-//W3C//DTD SVG 1.1//EN"
       "http://www.w3.org/Graphics/SVG/1.1/DTD/svg11.dtd">
<svg version="1.1" xmlns="http://www.w3.org/2000/svg" xmlns:xlink="http://www.w3.org/1999/xlink" viewBox="0 0 12.5006 12.1123">
 <g>
  <rect height="12.1123" opacity="0" width="12.5006" x="0" y="0"/>
  <path d="M0 8.11281C0 8.37422 0.178125 8.54453 0.434142 8.54453L1.08602 8.54453L1.08602 10.5696C1.08602 10.8439 1.26844 11.0185 1.54274 11.0185L3.55516 11.0185L3.55516 11.6728C3.55516 11.9342 3.73328 12.1123 3.9893 12.1123C4.24774 12.1123 4.42344 11.9342 4.42344 11.6728L4.42344 11.0185L5.61031 11.0185L5.61031 11.6728C5.61031 11.9342 5.78844 12.1123 6.04446 12.1123C6.30586 12.1123 6.48399 11.9342 6.48399 11.6728L6.48399 11.0185L7.66844 11.0185L7.66844 11.6728C7.66844 11.9342 7.84656 12.1123 8.10258 12.1123C8.36102 12.1123 8.53672 11.9342 8.53672 11.6728L8.53672 11.0185L10.5516 11.0185C10.8259 11.0185 11.0059 10.8439 11.0059 10.5696L11.0059 8.53914L11.6602 8.53914C11.9162 8.53914 12.0943 8.36883 12.0943 8.10742C12.0943 7.84899 11.9162 7.67328 11.6602 7.67328L11.0059 7.67328L11.0059 6.48641L11.6602 6.48641C11.9162 6.48641 12.0943 6.30828 12.0943 6.05227C12.0943 5.79625 11.9162 5.61813 11.6602 5.61813L11.0059 5.61813L11.0059 4.43125L11.6602 4.43125C11.9162 4.43125 12.0943 4.25555 12.0943 3.99711C12.0943 3.7357 11.9162 3.56539 11.6602 3.56539L11.0059 3.56539L11.0059 1.55539C11.0059 1.28109 10.8259 1.10648 10.5516 1.10648L8.53672 1.10648L8.53672 0.452188C8.53672 0.190782 8.36102 0.0180469 8.10258 0.0180469C7.84656 0.0180469 7.66844 0.190782 7.66844 0.452188L7.66844 1.10648L6.48399 1.10648L6.48399 0.452188C6.48399 0.190782 6.30586 0.0180469 6.04446 0.0180469C5.78844 0.0180469 5.61031 0.190782 5.61031 0.452188L5.61031 1.10648L4.42344 1.10648L4.42344 0.452188C4.42344 0.190782 4.24774 0.0180469 3.9893 0.0180469C3.73328 0.0180469 3.55516 0.190782 3.55516 0.452188L3.55516 1.10648L1.54274 1.10648C1.26844 1.10648 1.08602 1.28109 1.08602 1.55539L1.08602 3.56539L0.434142 3.56539C0.178125 3.56539 0 3.7411 0 4.0025C0 4.26094 0.178125 4.43664 0.434142 4.43664L1.08602 4.43664L1.08602 5.62352L0.434142 5.62352C0.178125 5.62352 0 5.80164 0 6.05766C0 6.31367 0.178125 6.4918 0.434142 6.4918L1.08602 6.4918L1.08602 7.67867L0.434142 7.67867C0.178125 7.67867 0 7.85438 0 8.11281ZM1.95969 9.98156L1.95969 2.14344C1.95969 2.01922 2.00657 1.97235 2.12539 1.97235L9.96891 1.97235C10.0877 1.97235 10.1346 2.01922 10.1346 2.14344L10.1346 9.98156C10.1346 10.1058 10.0877 10.1527 9.96891 10.1527L2.12539 10.1527C2.00657 10.1527 1.95969 10.1058 1.95969 9.98156ZM3.68555 8.84875L8.40094 8.84875C8.69141 8.84875 8.83609 8.70945 8.83609 8.41602L8.83609 3.70899C8.83609 3.41555 8.69141 3.27625 8.40094 3.27625L3.68555 3.27625C3.40289 3.27625 3.25821 3.41555 3.25821 3.70899L3.25821 8.41602C3.25821 8.70945 3.40289 8.84875 3.68555 8.84875ZM3.97555 7.99266L3.97555 4.13235C3.97555 4.04586 4.03321 3.98821 4.11969 3.98821L7.97461 3.98821C8.05867 3.98821 8.11633 4.04586 8.11633 4.13235L8.11633 7.99266C8.11633 8.07914 8.05867 8.1368 7.97461 8.1368L4.11969 8.1368C4.03321 8.1368 3.97555 8.07914 3.97555 7.99266Z" fill="white" fill-opacity="0.85"/>
 </g>
</svg>
