<?xml version="1.0" encoding="UTF-8"?>
<!--Generator: Apple Native CoreSVG 341-->
<!DOCTYPE svg
PUBLIC "-//W3C//DTD SVG 1.1//EN"
       "http://www.w3.org/Graphics/SVG/1.1/DTD/svg11.dtd">
<svg version="1.1" xmlns="http://www.w3.org/2000/svg" xmlns:xlink="http://www.w3.org/1999/xlink" viewBox="0 0 14.8363 12.5697">
 <g>
  <rect height="12.5697" opacity="0" width="14.8363" x="0" y="0"/>
  <path d="M1.28641 10.443L13.1437 10.443C13.9434 10.443 14.4301 9.95633 14.4301 9.15656L14.4301 1.69297C14.4301 0.895626 13.9434 0.406563 13.1437 0.406563L1.28641 0.406563C0.486641 0.406563 0 0.895626 0 1.69297L0 9.15656C0 9.95633 0.486641 10.443 1.28641 10.443ZM1.14735 7.81859C0.958518 7.81859 0.868283 7.74156 0.868283 7.54492L0.868283 1.7086C0.868283 1.44188 1.03531 1.27485 1.30446 1.27485L13.1256 1.27485C13.3948 1.27485 13.5618 1.44188 13.5618 1.7086L13.5618 7.54492C13.5618 7.74156 13.477 7.81859 13.2827 7.81859ZM5.31289 11.9437L9.12258 11.9437L9.12258 10.3648L5.31289 10.3648ZM5.25906 12.5697L9.17641 12.5697C9.41571 12.5697 9.61297 12.3802 9.61297 12.1355C9.61297 11.8933 9.41571 11.6984 9.17641 11.6984L5.25906 11.6984C5.01438 11.6984 4.81711 11.8933 4.81711 12.1355C4.81711 12.3802 5.01438 12.5697 5.25906 12.5697Z" fill="white" fill-opacity="0.85"/>
 </g>
</svg>
