<?xml version="1.0" encoding="UTF-8"?>
<!-- Generated by Pixelmator Pro 4.0 -->
<svg width="4267" height="4267" viewBox="0 0 4267 4267" xmlns="http://www.w3.org/2000/svg">
    <path id="J" fill="#00bfff" stroke="none" d="M 1263.277344 3309.341309 C 950.157104 3309.341309 685.002869 3230.270996 467.806488 3072.12793 C 250.610291 2913.985107 94.762421 2686.969238 0.258425 2391.07373 L 597.585999 2165.592285 C 663.133667 2354.134766 750.758057 2493.723633 860.461853 2584.364014 C 970.165649 2675.003906 1105.716431 2720.323486 1267.118042 2720.323486 C 1459.850342 2720.323486 1615.139648 2657.441895 1732.98999 2531.676758 C 1850.841064 2405.912109 1909.765503 2239.054688 1909.765503 2031.099365 L 1909.765503 135 L 2557.580078 135 L 2557.580078 2048.347412 C 2557.580078 2300.76123 2503.846191 2521.376221 2396.376953 2710.197754 C 2288.907959 2899.02002 2138.47168 3046.080566 1945.064697 3151.385254 C 1751.656982 3256.689697 1524.396973 3309.341309 1263.277344 3309.341309 Z"/>
    <path id="L" fill="#00bfff" stroke="none" d="M 1908.973877 4131.40625 L 1908.973877 1003.013428 L 2556.788574 1003.013428 L 2556.788574 3557.681396 L 4267 3557.681396 L 4267 4131.40625 Z"/>
</svg>
