<?xml version="1.0" encoding="UTF-8"?>
<!--Generator: Apple Native CoreSVG 341-->
<!DOCTYPE svg
PUBLIC "-//W3C//DTD SVG 1.1//EN"
       "http://www.w3.org/Graphics/SVG/1.1/DTD/svg11.dtd">
<svg version="1.1" xmlns="http://www.w3.org/2000/svg" xmlns:xlink="http://www.w3.org/1999/xlink" viewBox="0 0 13.3979 12.9784">
 <g>
  <rect height="12.9784" opacity="0" width="13.3979" x="0" y="0"/>
  <path d="M5.87594 12.9755L7.11031 12.9755C7.5643 12.9755 7.90703 12.7071 8.00914 12.2698L8.27664 11.1061L8.52383 11.018L9.52891 11.6463C9.91688 11.8817 10.3461 11.8343 10.6662 11.5088L11.528 10.6524C11.8505 10.3323 11.9033 9.89774 11.6624 9.51813L11.0288 8.51008L11.1169 8.27664L12.2806 8.00914C12.7179 7.90703 12.9916 7.55891 12.9916 7.11031L12.9916 5.8975C12.9916 5.44891 12.7233 5.10617 12.2806 4.99867L11.1277 4.72039L11.0342 4.48156L11.6678 3.47352C11.9087 3.08852 11.8613 2.6593 11.5334 2.33383L10.6716 1.47742C10.3569 1.15734 9.92766 1.10453 9.53969 1.34L8.52922 1.96281L8.27664 1.86938L8.00914 0.705626C7.90703 0.26836 7.5643 0 7.11031 0L5.87594 0C5.42195 0 5.08461 0.26836 4.9825 0.705626L4.715 1.86938L4.45461 1.96281L3.44414 1.34C3.06156 1.10453 2.62992 1.15734 2.31227 1.47742L1.45586 2.33383C1.12797 2.6593 1.08055 3.08852 1.32141 3.47352L1.94961 4.48156L1.85617 4.72039L0.705626 4.99867C0.26836 5.10617 0 5.44891 0 5.8975L0 7.11031C0 7.55891 0.27375 7.90703 0.705626 8.00914L1.86695 8.27664L1.955 8.51008L1.3268 9.51813C1.08594 9.89774 1.13875 10.3323 1.46125 10.6524L2.31766 11.5088C2.63531 11.8343 3.07234 11.8817 3.45492 11.6463L4.46539 11.018L4.715 11.1061L4.9825 12.2698C5.08461 12.7071 5.42195 12.9755 5.87594 12.9755ZM5.96594 12.1341C5.83938 12.1341 5.77125 12.0763 5.75133 11.9623L5.38789 10.4602C5.03547 10.3659 4.70274 10.232 4.44383 10.0735L3.12859 10.8925C3.03274 10.9504 2.93391 10.9455 2.84828 10.857L2.1161 10.1194C2.0275 10.0338 2.02266 9.94516 2.08836 9.84149L2.89656 8.52922C2.7675 8.27813 2.615 7.94539 2.5207 7.59297L1.01313 7.23492C0.89922 7.215 0.84133 7.14688 0.84133 7.02031L0.84133 5.97672C0.84133 5.84477 0.89383 5.78742 1.01313 5.75672L2.51531 5.40406C2.60961 5.03008 2.78367 4.68656 2.88578 4.45703L2.08297 3.15016C2.01188 3.04109 2.01672 2.9525 2.10531 2.86149L2.84289 2.13469C2.93391 2.05149 3.01656 2.04125 3.12859 2.09914L4.43305 2.90196C4.69195 2.75969 5.04625 2.615 5.39328 2.51531L5.75133 1.01313C5.77125 0.89922 5.83938 0.84133 5.96594 0.84133L7.0257 0.84133C7.15469 0.84133 7.22039 0.894377 7.24031 1.01313L7.59836 2.5261C7.96102 2.62039 8.28352 2.76508 8.54539 2.90735L9.86063 2.09914C9.96727 2.04125 10.0499 2.05149 10.1463 2.13469L10.8839 2.86149C10.9671 2.9525 10.9773 3.04109 10.9062 3.15016L10.098 4.45703C10.2104 4.68656 10.3766 5.02766 10.4709 5.40406L11.9761 5.75672C12.0978 5.78742 12.1449 5.84477 12.1449 5.97672L12.1449 7.02031C12.1449 7.14688 12.0924 7.215 11.9761 7.23492L10.4655 7.59297C10.3766 7.94781 10.2266 8.27813 10.0873 8.52922L10.9009 9.84149C10.9666 9.94516 10.9617 10.0338 10.8731 10.1194L10.1409 10.857C10.0499 10.9455 9.95109 10.9504 9.86063 10.8925L8.54 10.0735C8.28891 10.232 7.95563 10.3659 7.59836 10.4602L7.24031 11.9623C7.22039 12.0811 7.15469 12.1341 7.0257 12.1341ZM6.49313 8.81828C7.78461 8.81828 8.82609 7.7768 8.82609 6.48531C8.82609 5.19383 7.78461 4.15234 6.49313 4.15234C5.20164 4.15234 4.16016 5.19383 4.16016 6.48531C4.16016 7.7768 5.20164 8.81828 6.49313 8.81828ZM6.49313 7.98234C5.66758 7.98234 5.00149 7.31086 5.00149 6.48531C5.00149 5.65977 5.66758 4.98828 6.49313 4.98828C7.31867 4.98828 7.99016 5.65977 7.99016 6.48531C7.99016 7.31086 7.31867 7.98234 6.49313 7.98234Z" fill="white" fill-opacity="0.85"/>
 </g>
</svg>
