<?xml version="1.0" encoding="UTF-8"?>
<!--Generator: Apple Native CoreSVG 341-->
<!DOCTYPE svg
PUBLIC "-//W3C//DTD SVG 1.1//EN"
       "http://www.w3.org/Graphics/SVG/1.1/DTD/svg11.dtd">
<svg version="1.1" xmlns="http://www.w3.org/2000/svg" xmlns:xlink="http://www.w3.org/1999/xlink" viewBox="0 0 12.7885 12.3847">
 <g>
  <rect height="12.3847" opacity="0" width="12.7885" x="0" y="0"/>
  <path d="M6.18844 12.3769C9.60742 12.3769 12.3823 9.60742 12.3823 6.18844C12.3823 2.76945 9.60742 0 6.18844 0C2.77484 0 0 2.76945 0 6.18844C0 9.60742 2.77484 12.3769 6.18844 12.3769ZM6.18844 11.4655C3.2707 11.4655 0.914377 9.10617 0.914377 6.18844C0.914377 3.2707 3.2707 0.911408 6.18844 0.911408C9.10617 0.911408 11.4655 3.2707 11.4655 6.18844C11.4655 9.10617 9.10617 11.4655 6.18844 11.4655Z" fill="white" fill-opacity="0.85"/>
  <path d="M5.10711 9.59125L7.60602 9.59125C7.82914 9.59125 8.00485 9.4293 8.00485 9.2032C8.00485 8.99031 7.82914 8.82055 7.60602 8.82055L6.78531 8.82055L6.78531 5.54266C6.78531 5.2543 6.63656 5.06297 6.36492 5.06297L5.19524 5.06297C4.97211 5.06297 4.8018 5.23274 4.8018 5.44266C4.8018 5.66633 4.97211 5.83071 5.19524 5.83071L5.92781 5.83071L5.92781 8.82055L5.10711 8.82055C4.88156 8.82055 4.70828 8.99031 4.70828 9.2032C4.70828 9.4293 4.88156 9.59125 5.10711 9.59125ZM6.14531 3.99063C6.55516 3.99063 6.87985 3.66781 6.87985 3.25797C6.87985 2.84813 6.55516 2.52344 6.14531 2.52344C5.74086 2.52344 5.41078 2.84813 5.41078 3.25797C5.41078 3.66781 5.74086 3.99063 6.14531 3.99063Z" fill="white" fill-opacity="0.85"/>
 </g>
</svg>
