<?xml version="1.0" encoding="UTF-8"?>
<!--Generator: Apple Native CoreSVG 341-->
<!DOCTYPE svg
PUBLIC "-//W3C//DTD SVG 1.1//EN"
       "http://www.w3.org/Graphics/SVG/1.1/DTD/svg11.dtd">
<svg version="1.1" xmlns="http://www.w3.org/2000/svg" xmlns:xlink="http://www.w3.org/1999/xlink" viewBox="0 0 11.5784 11.1805">
 <g>
  <rect height="11.1805" opacity="0" width="11.5784" x="0" y="0"/>
  <path d="M1.86141 11.1805L9.3107 11.1805C10.5498 11.1805 11.1721 10.5533 11.1721 9.33524L11.1721 1.8482C11.1721 0.630157 10.5498 0.00296879 9.3107 0.00296879L1.86141 0.00296879C0.627735 0.00296879 0 0.625313 0 1.8482L0 9.33524C0 10.5581 0.627735 11.1805 1.86141 11.1805ZM1.87703 10.3068C1.22492 10.3068 0.868283 9.96094 0.868283 9.29266L0.868283 1.89078C0.868283 1.21711 1.22492 0.876643 1.87703 0.876643L9.29508 0.876643C9.9375 0.876643 10.3038 1.21711 10.3038 1.89078L10.3038 9.29266C10.3038 9.96094 9.9375 10.3068 9.29508 10.3068Z" fill="white" fill-opacity="0.85"/>
  <path d="M6.04149 7.93242L6.04149 3.23C6.04149 2.95539 5.85016 2.76891 5.58094 2.76891C5.32195 2.76891 5.13602 2.95781 5.13602 3.23L5.13602 7.93242C5.13602 8.19922 5.32195 8.38813 5.58094 8.38813C5.85016 8.38813 6.04149 8.20164 6.04149 7.93242ZM3.24024 6.03125L7.93727 6.03125C8.20406 6.03125 8.39297 5.84531 8.39297 5.58633C8.39297 5.31711 8.20649 5.12578 7.93727 5.12578L3.24024 5.12578C2.96563 5.12578 2.77914 5.31711 2.77914 5.58633C2.77914 5.84531 2.96805 6.03125 3.24024 6.03125Z" fill="white" fill-opacity="0.85"/>
 </g>
</svg>
