<?xml version="1.0" encoding="UTF-8"?>
<!--Generator: Apple Native CoreSVG 341-->
<!DOCTYPE svg
PUBLIC "-//W3C//DTD SVG 1.1//EN"
       "http://www.w3.org/Graphics/SVG/1.1/DTD/svg11.dtd">
<svg version="1.1" xmlns="http://www.w3.org/2000/svg" xmlns:xlink="http://www.w3.org/1999/xlink" viewBox="0 0 40.293 44.2383">
 <g>
  <rect height="44.2383" opacity="0" width="40.293" x="0" y="0"/>
  <path d="M37.7148 29.1602C39.2969 30.0781 39.9219 30.8008 39.9219 31.8555C39.9219 32.9297 39.2969 33.6523 37.7148 34.5703L22.4414 43.4375C21.5039 43.9844 20.7422 44.2383 19.9609 44.2383C19.1602 44.2383 18.418 43.9844 17.4805 43.4375L2.1875 34.5703C0.605469 33.6523 0 32.9297 0 31.8555C0 30.8008 0.605469 30.0781 2.1875 29.1602L5.28311 27.3653L8.49328 29.2307L4.21875 31.6797C4.14062 31.7188 4.08203 31.7773 4.08203 31.8555C4.08203 31.9531 4.14062 32.0117 4.21875 32.0508L19.082 40.5664C19.4141 40.7422 19.6875 40.8398 19.9609 40.8398C20.2344 40.8398 20.5078 40.7422 20.8203 40.5664L35.6836 32.0508C35.7812 32.0117 35.8398 31.9531 35.8398 31.8555C35.8398 31.7773 35.7812 31.7188 35.6836 31.6797L31.4131 29.233L34.6232 27.3653Z" fill="white" fill-opacity="0.85"/>
  <path d="M37.7148 20.1562C39.2969 21.0938 39.9219 21.7969 39.9219 22.8711C39.9219 23.9453 39.2969 24.6484 37.7148 25.5664L22.4414 34.4531C21.5039 35 20.7422 35.2539 19.9609 35.2539C19.1602 35.2539 18.418 35 17.4805 34.4531L2.1875 25.5664C0.605469 24.6484 0 23.9453 0 22.8711C0 21.7969 0.605469 21.0938 2.1875 20.1562L5.80863 18.0566L9.03099 19.925L4.21875 22.6758C4.14062 22.7148 4.08203 22.7734 4.08203 22.8711C4.08203 22.9688 4.14062 23.0078 4.21875 23.0664L19.082 31.5625C19.4141 31.7383 19.6875 31.8359 19.9609 31.8359C20.2344 31.8359 20.5078 31.7383 20.8203 31.5625L35.6836 23.0664C35.7812 23.0078 35.8398 22.9688 35.8398 22.8711C35.8398 22.7734 35.7812 22.7148 35.6836 22.6758L30.8758 19.9275L34.0983 18.0566ZM12.2903 18.0619L12.2903 18.0619L9.77616 16.6215ZM27.612 18.0619L27.612 18.0619L29.1202 17.1978Z" fill="white" fill-opacity="0.85"/>
  <path d="M19.9609 25.625C20.7422 25.625 21.5039 25.3711 22.4414 24.8242L37.7148 15.957C39.2969 15.0391 39.9219 14.3164 39.9219 13.2422C39.9219 12.1875 39.2969 11.4648 37.7148 10.5469L22.4414 1.67969C21.5039 1.13281 20.7422 0.878906 19.9609 0.878906C19.1602 0.878906 18.418 1.13281 17.4805 1.67969L2.1875 10.5469C0.605469 11.4648 0 12.1875 0 13.2422C0 14.3164 0.605469 15.0391 2.1875 15.957L17.4805 24.8242C18.418 25.3711 19.1602 25.625 19.9609 25.625ZM19.9609 22.2266C19.6875 22.2266 19.4141 22.1289 19.082 21.9531L4.21875 13.4375C4.14062 13.3984 4.08203 13.3398 4.08203 13.2422C4.08203 13.1641 4.14062 13.1055 4.21875 13.0664L19.082 4.55078C19.4141 4.375 19.6875 4.27734 19.9609 4.27734C20.2344 4.27734 20.5078 4.375 20.8203 4.55078L35.6836 13.0664C35.7812 13.1055 35.8398 13.1641 35.8398 13.2422C35.8398 13.3398 35.7812 13.3984 35.6836 13.4375L20.8203 21.9531C20.5078 22.1289 20.2344 22.2266 19.9609 22.2266Z" fill="white" fill-opacity="0.85"/>
 </g>
</svg>
