<?xml version="1.0" encoding="UTF-8"?>
<!--Generator: Apple Native CoreSVG 341-->
<!DOCTYPE svg
PUBLIC "-//W3C//DTD SVG 1.1//EN"
       "http://www.w3.org/Graphics/SVG/1.1/DTD/svg11.dtd">
<svg version="1.1" xmlns="http://www.w3.org/2000/svg" xmlns:xlink="http://www.w3.org/1999/xlink" viewBox="0 0 12.1815 14.6094">
 <g>
  <rect height="14.6094" opacity="0" width="12.1815" x="0" y="0"/>
  <path d="M4.06719 11.6275C4.27953 11.6275 4.41266 11.4949 4.40727 11.3036L4.21063 4.64063C4.20524 4.44391 4.06485 4.32156 3.87055 4.32156C3.66602 4.32156 3.52508 4.4493 3.53047 4.64547L3.72711 11.306C3.7325 11.5027 3.86805 11.6275 4.06719 11.6275ZM5.88883 11.6275C6.09875 11.6275 6.23969 11.4973 6.23969 11.3036L6.23969 4.64547C6.23969 4.45172 6.09875 4.32156 5.88883 4.32156C5.68133 4.32156 5.53797 4.45172 5.53797 4.64547L5.53797 11.3036C5.53797 11.4973 5.68133 11.6275 5.88883 11.6275ZM7.71344 11.6323C7.90961 11.6323 8.05055 11.5052 8.05594 11.3084L8.24719 4.64789C8.25258 4.45172 8.11461 4.32399 7.90711 4.32399C7.71039 4.32399 7.57 4.45172 7.56461 4.64305L7.37336 11.306C7.36797 11.4973 7.50352 11.6323 7.71344 11.6323ZM3.23977 2.72781L4.09727 2.72781L4.09727 1.42742C4.09727 1.04656 4.35531 0.808986 4.75609 0.808986L7.01375 0.808986C7.41156 0.808986 7.66961 1.04656 7.66961 1.42742L7.66961 2.72781L8.5325 2.72781L8.5325 1.37352C8.5325 0.521875 7.97695 0 7.06281 0L4.70164 0C3.79531 0 3.23977 0.521875 3.23977 1.37352ZM0.40422 3.15656L11.3734 3.15656C11.5995 3.15656 11.7752 2.97305 11.7752 2.74938C11.7752 2.52086 11.5917 2.34219 11.3734 2.34219L0.40422 2.34219C0.191329 2.34219 0 2.52328 0 2.74938C0 2.97547 0.191329 3.15656 0.40422 3.15656ZM3.10242 13.5608L8.68063 13.5608C9.51102 13.5608 10.0908 13.0069 10.1328 12.1759L10.573 3.04906L9.70281 3.04906L9.27586 12.0878C9.25781 12.4684 8.97742 12.7464 8.59734 12.7464L3.17008 12.7464C2.8032 12.7464 2.51742 12.463 2.49938 12.0878L2.05383 3.05149L1.20469 3.05149L1.65266 12.1813C1.69469 13.0123 2.26125 13.5608 3.10242 13.5608Z" fill="white" fill-opacity="0.85"/>
 </g>
</svg>
