<?xml version="1.0" encoding="UTF-8"?>
<!--Generator: Apple Native CoreSVG 341-->
<!DOCTYPE svg
PUBLIC "-//W3C//DTD SVG 1.1//EN"
       "http://www.w3.org/Graphics/SVG/1.1/DTD/svg11.dtd">
<svg version="1.1" xmlns="http://www.w3.org/2000/svg" xmlns:xlink="http://www.w3.org/1999/xlink" viewBox="0 0 17.8005 9.80563">
 <g>
  <rect height="9.80563" opacity="0" width="17.8005" x="0" y="0"/>
  <path d="M6.91422 0.876096L7.07047 0.876096C7.15938 0.876096 7.20922 0.920549 7.20922 1.01781L7.20922 1.08867C7.20922 1.32766 7.36172 1.49578 7.61149 1.49578L9.79836 1.49578C10.0349 1.49578 10.1898 1.32766 10.1898 1.08867L10.1898 1.01781C10.1898 0.920549 10.2397 0.876096 10.3316 0.876096L10.4878 0.876096L10.4878 0.433595L6.91422 0.433595ZM0 9.16406C0 9.52 0.283204 9.80563 0.633751 9.80563L16.7605 9.80563C17.114 9.80563 17.3942 9.52 17.3942 9.16406C17.3942 8.80516 17.114 8.51953 16.7605 8.51953L15.4191 8.51953L15.4191 1.28266C15.4191 0.441563 14.9746 0.0102344 14.1359 0.0102344L3.25828 0.0102344C2.45735 0.0102344 1.97508 0.441563 1.97508 1.28266L1.97508 8.51953L0.633751 8.51953C0.283204 8.51953 0 8.80516 0 9.16406ZM2.84875 8.51953L2.84875 1.51688C2.84875 1.08969 3.05696 0.876096 3.48656 0.876096L13.9077 0.876096C14.3373 0.876096 14.5509 1.08969 14.5509 1.51688L14.5509 8.51953Z" fill="white" fill-opacity="0.85"/>
 </g>
</svg>
