<?xml version="1.0" encoding="UTF-8"?>
<!--Generator: Apple Native CoreSVG 341-->
<!DOCTYPE svg
PUBLIC "-//W3C//DTD SVG 1.1//EN"
       "http://www.w3.org/Graphics/SVG/1.1/DTD/svg11.dtd">
<svg version="1.1" xmlns="http://www.w3.org/2000/svg" xmlns:xlink="http://www.w3.org/1999/xlink" viewBox="0 0 16.0602 6.29391">
 <g>
  <rect height="6.29391" opacity="0" width="16.0602" x="0" y="0"/>
  <path d="M1.84203 6.2861L13.8173 6.2861C15.0485 6.2861 15.6539 5.66375 15.6539 4.46563L15.6539 1.82047C15.6539 0.622344 15.0485 0 13.8173 0L1.84203 0C0.605391 0 0 0.622344 0 1.82047L0 4.46563C0 5.66375 0.605391 6.2861 1.84203 6.2861ZM1.85281 5.41242C1.20797 5.41242 0.868283 5.07438 0.868283 4.4225L0.868283 1.8636C0.868283 1.21172 1.20797 0.873674 1.85281 0.873674L13.8065 0.873674C14.4513 0.873674 14.7856 1.21172 14.7856 1.8636L14.7856 4.4225C14.7856 5.07438 14.4513 5.41242 13.8065 5.41242ZM2.91719 3.08664C2.91719 2.91445 2.78219 2.77945 2.61 2.77945C2.43781 2.77945 2.29985 2.91445 2.29985 3.08664L2.29985 3.93258C2.29985 4.10235 2.43781 4.24274 2.61 4.24274C2.78219 4.24274 2.91719 4.10235 2.91719 3.93258ZM4.56758 3.08664C4.56758 2.91445 4.43258 2.77945 4.26282 2.77945C4.08524 2.77945 3.95024 2.91445 3.95024 3.08664L3.95024 3.93258C3.95024 4.10235 4.08524 4.24274 4.26282 4.24274C4.43258 4.24274 4.56758 4.10235 4.56758 3.93258ZM10.9617 3.94633C11.2074 3.94633 11.4063 3.74992 11.4063 3.50961C11.4063 3.26391 11.2074 3.06508 10.9617 3.06508C10.716 3.06508 10.5226 3.26391 10.5226 3.50961C10.5226 3.74992 10.716 3.94633 10.9617 3.94633ZM12.7587 4.10258C13.0849 4.10258 13.3541 3.83586 13.3541 3.50961C13.3541 3.17797 13.0849 2.90883 12.7587 2.90883C12.4295 2.90883 12.1603 3.17797 12.1603 3.50961C12.1603 3.83586 12.4295 4.10258 12.7587 4.10258Z" fill="white" fill-opacity="0.85"/>
 </g>
</svg>
