<?xml version="1.0" encoding="UTF-8"?>
<!--Generator: Apple Native CoreSVG 341-->
<!DOCTYPE svg
PUBLIC "-//W3C//DTD SVG 1.1//EN"
       "http://www.w3.org/Graphics/SVG/1.1/DTD/svg11.dtd">
<svg version="1.1" xmlns="http://www.w3.org/2000/svg" xmlns:xlink="http://www.w3.org/1999/xlink" viewBox="0 0 12.8451 15.8027">
 <g>
  <rect height="15.8027" opacity="0" width="12.8451" x="0" y="0"/>
  <path d="M5.55977 9.52039C5.83672 9.52039 5.97008 9.34016 6.30711 9.34016C6.65977 9.34016 6.74086 9.52039 7.04664 9.52039C7.35781 9.52039 7.55367 9.23024 7.74711 8.9611C7.9718 8.6475 8.0475 8.3393 8.05532 8.32071C8.03969 8.31289 7.44914 8.08039 7.44914 7.41414C7.44914 6.83141 7.91172 6.57008 7.94055 6.55446C7.62938 6.11531 7.17758 6.09969 7.04664 6.09969C6.70422 6.09969 6.42727 6.30875 6.25485 6.30875C6.0668 6.30875 5.8211 6.11531 5.52313 6.11531C4.96141 6.11531 4.39969 6.57789 4.39969 7.4586C4.39969 8.00469 4.60336 8.5718 4.86469 8.94547C5.08938 9.25907 5.28281 9.52039 5.55977 9.52039ZM6.28367 6.06063C6.47953 6.06063 6.74086 5.91946 6.88985 5.73625C7.03102 5.56922 7.12531 5.33914 7.12531 5.10664C7.12531 5.07 7.12531 5.04117 7.1175 5.01774C6.88985 5.02555 6.62071 5.16672 6.45071 5.35477C6.32274 5.50375 6.21578 5.73625 6.21578 5.96633C6.21578 6.00297 6.21578 6.03961 6.2236 6.04742C6.23383 6.05766 6.25485 6.06063 6.28367 6.06063ZM1.86141 13.3279L10.572 13.3279C11.8057 13.3279 12.4388 12.7061 12.4388 11.488L12.4388 3.55031C12.4388 2.32742 11.8057 1.70508 10.572 1.70508L1.86141 1.70508C0.622344 1.70508 0 2.32742 0 3.55031L0 11.488C0 12.7109 0.622344 13.3279 1.86141 13.3279ZM1.87703 12.4596C1.22492 12.4596 0.868283 12.1138 0.868283 11.4401L0.868283 3.59289C0.868283 2.91922 1.22492 2.57875 1.87703 2.57875L10.5564 2.57875C11.2085 2.57875 11.5652 2.91922 11.5652 3.59289L11.5652 11.4401C11.5652 12.1138 11.1988 12.4596 10.5564 12.4596ZM1.61242 15.1227L3.79977 15.1227C4.035 15.1227 4.22281 14.9348 4.22281 14.6996C4.22281 14.4614 4.035 14.2736 3.79977 14.2736L1.61242 14.2736C1.37961 14.2736 1.1918 14.4614 1.1918 14.6996C1.1918 14.9348 1.37961 15.1227 1.61242 15.1227ZM2.28398 14.6592L3.13063 14.6592L3.13063 12.8813L2.28398 12.8813ZM8.63125 15.1227L10.8186 15.1227C11.0538 15.1227 11.2416 14.9348 11.2416 14.6996C11.2416 14.4614 11.0538 14.2736 10.8186 14.2736L8.63125 14.2736C8.40383 14.2736 8.21063 14.4614 8.21063 14.6996C8.21063 14.9348 8.40383 15.1227 8.63125 15.1227ZM9.30281 14.6592L10.1495 14.6592L10.1495 12.8813L9.30281 12.8813ZM2.28398 2.13383L3.13063 2.13383L3.13063 0.420626C3.13063 0.185391 2.94281 0 2.71 0C2.46938 0 2.28398 0.185391 2.28398 0.420626ZM9.30281 2.13383L10.1495 2.13383L10.1495 0.420626C10.1495 0.185391 9.96407 0 9.72883 0C9.48821 0 9.30281 0.185391 9.30281 0.420626Z" fill="white" fill-opacity="0.85"/>
 </g>
</svg>
