<?xml version="1.0" encoding="UTF-8"?>
<!--Generator: Apple Native CoreSVG 341-->
<!DOCTYPE svg
PUBLIC "-//W3C//DTD SVG 1.1//EN"
       "http://www.w3.org/Graphics/SVG/1.1/DTD/svg11.dtd">
<svg version="1.1" xmlns="http://www.w3.org/2000/svg" xmlns:xlink="http://www.w3.org/1999/xlink" viewBox="0 0 15.302 8.00719">
 <g>
  <rect height="8.00719" opacity="0" width="15.302" x="0" y="0"/>
  <path d="M1.86141 7.95086L13.0343 7.95086C14.268 7.95086 14.8957 7.33149 14.8957 6.11102L14.8957 1.83984C14.8957 0.621797 14.268 0 13.0343 0L1.86141 0C0.622344 0 0 0.616953 0 1.83984L0 6.11102C0 7.33633 0.622344 7.95086 1.86141 7.95086ZM1.87703 7.085C1.22492 7.085 0.868283 6.73672 0.868283 6.06547L0.868283 1.88781C0.868283 1.21414 1.22492 0.868283 1.87703 0.868283L13.0187 0.868283C13.6611 0.868283 14.0274 1.21414 14.0274 1.88781L14.0274 6.06547C14.0274 6.73672 13.6611 7.085 13.0187 7.085ZM2.27445 6.10375C2.47899 6.10375 2.63313 5.93883 2.63313 5.75047L2.63313 4.70563C2.63313 4.50352 2.4736 4.34695 2.27445 4.35235C2.07774 4.34695 1.91578 4.50352 1.91578 4.70563L1.91578 5.74508C1.91578 5.94422 2.07234 6.10375 2.27445 6.10375ZM3.69727 6.10375C3.9018 6.10375 4.05594 5.93883 4.05594 5.75047L4.05594 4.70563C4.05594 4.50352 3.89641 4.34695 3.69727 4.35235C3.50055 4.34695 3.3386 4.50352 3.3386 4.70563L3.3386 5.74508C3.3386 5.94422 3.49516 6.10375 3.69727 6.10375ZM5.25578 5.58524L7.73961 5.58524C7.93633 5.58524 8.09828 5.42328 8.09828 5.22656C8.09828 5.02742 7.93633 4.86547 7.73961 4.86547L5.25578 4.86547C5.05664 4.86547 4.89711 5.02742 4.89711 5.22656C4.89711 5.42328 5.05664 5.58524 5.25578 5.58524ZM12.3369 5.92946C12.713 5.92164 13.0344 5.61047 13.0344 5.23438C13.0344 4.84508 12.713 4.52367 12.3369 4.52367C11.9608 4.52367 11.6316 4.84508 11.6316 5.23438C11.6316 5.61047 11.9608 5.93727 12.3369 5.92946Z" fill="white" fill-opacity="0.85"/>
 </g>
</svg>
