<?xml version="1.0" encoding="UTF-8"?>
<!--Generator: Apple Native CoreSVG 341-->
<!DOCTYPE svg
PUBLIC "-//W3C//DTD SVG 1.1//EN"
       "http://www.w3.org/Graphics/SVG/1.1/DTD/svg11.dtd">
<svg version="1.1" xmlns="http://www.w3.org/2000/svg" xmlns:xlink="http://www.w3.org/1999/xlink" viewBox="0 0 12.2823 11.9908">
 <g>
  <rect height="11.9908" opacity="0" width="12.2823" x="0" y="0"/>
  <path d="M0 4.81617C0 7.4736 2.16117 9.62938 4.81859 9.62938C5.88539 9.62938 6.86383 9.28188 7.66125 8.69032L10.7637 11.8005C10.8914 11.9253 11.0582 11.9884 11.2328 11.9884C11.6133 11.9884 11.876 11.7003 11.876 11.332C11.876 11.1568 11.807 10.9978 11.696 10.8736L8.60438 7.77656C9.24821 6.96055 9.62938 5.93524 9.62938 4.81617C9.62938 2.16117 7.4736 0 4.81859 0C2.16117 0 0 2.16117 0 4.81617ZM0.919768 4.81617C0.919768 2.66485 2.66485 0.919768 4.81859 0.919768C6.96453 0.919768 8.715 2.66485 8.715 4.81617C8.715 6.96453 6.96453 8.715 4.81859 8.715C2.66485 8.715 0.919768 6.96453 0.919768 4.81617Z" fill="white" fill-opacity="0.85"/>
 </g>
</svg>
