<?xml version="1.0" encoding="UTF-8"?>
<!-- Generated by Pixelmator Pro 4.0 -->
<svg width="680" height="680" viewBox="0 0 680 680" xmlns="http://www.w3.org/2000/svg">
    <g id="Group">
        <path id="Path" fill="none" stroke="#90e0ef" stroke-width="8.5" stroke-linecap="round" stroke-linejoin="round" d="M 40.799999 0 L 639.200012 0 C 661.733215 0 680 18.266785 680 40.799988 L 680 639.200012 C 680 661.733215 661.733215 680 639.200012 680 L 40.799999 680 C 18.266804 680 0 661.733215 0 639.200012 L 0 40.799988 C 0 18.266785 18.266804 0 40.799999 0 Z"/>
        <path id="path1" fill="#90e0ef" stroke="none" opacity="0.08" d="M 40.799999 0 L 639.200012 0 C 661.733215 0 680 18.266785 680 40.799988 L 680 61.200012 C 680 83.733215 661.733215 102 639.200012 102 L 40.799999 102 C 18.266804 102 0 83.733215 0 61.200012 L 0 40.799988 C 0 18.266785 18.266804 0 40.799999 0 Z"/>
        <path id="path2" fill="#90e0ef" stroke="none" opacity="0.08" d="M 0 47.599976 L 680 47.599976 L 680 102 L 0 102 Z"/>
        <path id="path3" fill="none" stroke="#90e0ef" stroke-width="5.1" stroke-linecap="round" stroke-linejoin="round" d="M 91.800003 51 C 91.800003 60.388794 84.188805 68 74.800003 68 C 65.411194 68 57.799999 60.388794 57.799999 51 C 57.799999 41.611206 65.411194 34 74.800003 34 C 84.188805 34 91.800003 41.611206 91.800003 51 Z"/>
        <path id="path4" fill="none" stroke="#90e0ef" stroke-width="5.1" stroke-linecap="round" stroke-linejoin="round" d="M 146.199997 51 C 146.199997 60.388794 138.588806 68 129.199997 68 C 119.811195 68 112.199997 60.388794 112.199997 51 C 112.199997 41.611206 119.811195 34 129.199997 34 C 138.588806 34 146.199997 41.611206 146.199997 51 Z"/>
        <path id="path5" fill="none" stroke="#90e0ef" stroke-width="5.1" stroke-linecap="round" stroke-linejoin="round" d="M 200.600006 51 C 200.600006 60.388794 192.9888 68 183.600006 68 C 174.211197 68 166.600006 60.388794 166.600006 51 C 166.600006 41.611206 174.211197 34 183.600006 34 C 192.9888 34 200.600006 41.611206 200.600006 51 Z"/>
        <path id="path6" fill="none" stroke="#90e0ef" stroke-width="6.8" stroke-linecap="round" stroke-linejoin="round" d="M 251.600006 258.399994 C 251.600006 307.221985 212.021973 346.799988 163.199997 346.799988 C 114.378021 346.799988 74.800003 307.221985 74.800003 258.399994 C 74.800003 209.578033 114.378021 170 163.199997 170 C 212.021973 170 251.600006 209.578033 251.600006 258.399994 Z"/>
        <path id="path7" fill="none" stroke="#90e0ef" stroke-width="4.629846" stroke-linecap="round" stroke-linejoin="round" d="M 163.199997 170 L 163.199997 217.600006"/>
        <path id="path8" fill="none" stroke="#90e0ef" stroke-width="6.8" stroke-linecap="round" stroke-linejoin="round" d="M 523.599976 258.399994 C 523.599976 307.221985 484.021973 346.799988 435.200012 346.799988 C 386.378021 346.799988 346.799988 307.221985 346.799988 258.399994 C 346.799988 209.578033 386.378021 170 435.200012 170 C 484.021973 170 523.599976 209.578033 523.599976 258.399994 Z"/>
        <path id="path9" fill="none" stroke="#90e0ef" stroke-width="8.5" stroke-linecap="round" stroke-linejoin="round" d="M 387.600006 190.399994 L 408 224.399994"/>
        <path id="path10" fill="none" stroke="#90e0ef" stroke-width="5.1" stroke-linecap="round" stroke-linejoin="round" d="M 105.400002 428.399994 L 153 428.399994 C 166.144394 428.399994 176.800003 439.055603 176.800003 452.200012 L 176.800003 452.200012 C 176.800003 465.344391 166.144394 476 153 476 L 105.400002 476 C 92.255608 476 81.599998 465.344391 81.599998 452.200012 L 81.599998 452.200012 C 81.599998 439.055603 92.255608 428.399994 105.400002 428.399994 Z"/>
        <path id="path11" fill="#90e0ef" stroke="none" opacity="0.8" d="M 166.600006 452.200012 C 166.600006 461.588867 158.9888 469.200012 149.600006 469.200012 C 140.211197 469.200012 132.600006 461.588867 132.600006 452.200012 C 132.600006 442.811157 140.211197 435.200012 149.600006 435.200012 C 158.9888 435.200012 166.600006 442.811157 166.600006 452.200012 Z"/>
        <path id="path12" fill="none" stroke="#90e0ef" stroke-width="5.1" stroke-linecap="round" stroke-linejoin="round" d="M 241.399994 428.399994 L 289 428.399994 C 302.144379 428.399994 312.799988 439.055603 312.799988 452.200012 L 312.799988 452.200012 C 312.799988 465.344391 302.144379 476 289 476 L 241.399994 476 C 228.255615 476 217.600006 465.344391 217.600006 452.200012 L 217.600006 452.200012 C 217.600006 439.055603 228.255615 428.399994 241.399994 428.399994 Z"/>
        <path id="path13" fill="#90e0ef" stroke="none" opacity="0.3" d="M 302.600006 452.200012 C 302.600006 461.588867 294.9888 469.200012 285.600006 469.200012 C 276.211182 469.200012 268.600006 461.588867 268.600006 452.200012 C 268.600006 442.811157 276.211182 435.200012 285.600006 435.200012 C 294.9888 435.200012 302.600006 442.811157 302.600006 452.200012 Z"/>
        <path id="path14" fill="none" stroke="#90e0ef" stroke-width="5.1" stroke-linecap="round" stroke-linejoin="round" d="M 98.599998 523.599976 L 581.400024 523.599976 C 590.788818 523.599976 598.400024 531.211121 598.400024 540.599976 L 598.400024 554.200012 C 598.400024 563.588867 590.788818 571.200012 581.400024 571.200012 L 98.599998 571.200012 C 89.211197 571.200012 81.599998 563.588867 81.599998 554.200012 L 81.599998 540.599976 C 81.599998 531.211121 89.211197 523.599976 98.599998 523.599976 Z"/>
        <path id="path15" fill="#90e0ef" stroke="none" opacity="0.12" d="M 102 530.400024 L 578 530.400024 C 585.511047 530.400024 591.599976 536.488953 591.599976 544 L 591.599976 550.799988 C 591.599976 558.311035 585.511047 564.400024 578 564.400024 L 102 564.400024 C 94.488937 564.400024 88.400002 558.311035 88.400002 550.799988 L 88.400002 544 C 88.400002 536.488953 94.488937 530.400024 102 530.400024 Z"/>
        <path id="path16" fill="#90e0ef" stroke="none" opacity="0.9" d="M 102 530.400024 L 408 530.400024 C 415.511078 530.400024 421.600006 536.488953 421.600006 544 L 421.600006 550.799988 C 421.600006 558.311035 415.511078 564.400024 408 564.400024 L 102 564.400024 C 94.488937 564.400024 88.400002 558.311035 88.400002 550.799988 L 88.400002 544 C 88.400002 536.488953 94.488937 530.400024 102 530.400024 Z"/>
    </g>
</svg>
