<?xml version="1.0" encoding="UTF-8"?>
<!--Generator: Apple Native CoreSVG 341-->
<!DOCTYPE svg
PUBLIC "-//W3C//DTD SVG 1.1//EN"
       "http://www.w3.org/Graphics/SVG/1.1/DTD/svg11.dtd">
<svg version="1.1" xmlns="http://www.w3.org/2000/svg" xmlns:xlink="http://www.w3.org/1999/xlink" viewBox="0 0 10.4113 10.0183">
 <g>
  <rect height="10.0183" opacity="0" width="10.4113" x="0" y="0"/>
  <path d="M5.4825 9.52781L5.4825 0.482657C5.4825 0.224219 5.26664 0 5.00524 0C4.74383 0 4.52258 0.224219 4.52258 0.482657L4.52258 9.52781C4.52258 9.78625 4.74383 10.0105 5.00524 10.0105C5.26664 10.0105 5.4825 9.78625 5.4825 9.52781ZM0.482657 5.48789L9.52781 5.48789C9.78625 5.48789 10.0051 5.26664 10.0051 5.00524C10.0051 4.74383 9.78625 4.52258 9.52781 4.52258L0.482657 4.52258C0.218829 4.52258 0 4.74383 0 5.00524C0 5.26664 0.218829 5.48789 0.482657 5.48789Z" fill="white" fill-opacity="0.85"/>
 </g>
</svg>
